<svg width="27" height="23" viewBox="0 0 27 23" fill="none" xmlns="http://www.w3.org/2000/svg">
<path d="M6.03 12.37C4.45 12.37 3.16 11.85 2.16 10.81C1.16 9.77 0.66 8.35 0.66 6.55C0.66 5.37 0.89 4.34 1.35 3.46C1.81 2.58 2.44 1.91 3.24 1.45C4.06 0.969998 4.99 0.729998 6.03 0.729998C7.63 0.729998 8.93 1.26 9.93 2.32C10.93 3.36 11.43 4.77 11.43 6.55C11.43 8.35 10.93 9.77 9.93 10.81C8.93 11.85 7.63 12.37 6.03 12.37ZM18.45 0.999999H22.77L8.43 22H4.11L18.45 0.999999ZM6.03 9.52C6.57 9.52 7 9.28 7.32 8.8C7.64 8.32 7.8 7.57 7.8 6.55C7.8 5.53 7.64 4.78 7.32 4.3C7 3.82 6.57 3.58 6.03 3.58C5.51 3.58 5.08 3.83 4.74 4.33C4.42 4.81 4.26 5.55 4.26 6.55C4.26 7.55 4.42 8.3 4.74 8.8C5.08 9.28 5.51 9.52 6.03 9.52ZM20.85 22.27C19.25 22.27 17.95 21.75 16.95 20.71C15.97 19.67 15.48 18.25 15.48 16.45C15.48 14.67 15.98 13.26 16.98 12.22C17.98 11.16 19.27 10.63 20.85 10.63C22.45 10.63 23.75 11.16 24.75 12.22C25.75 13.26 26.25 14.67 26.25 16.45C26.25 18.25 25.75 19.67 24.75 20.71C23.75 21.75 22.45 22.27 20.85 22.27ZM20.85 19.42C21.39 19.42 21.82 19.18 22.14 18.7C22.46 18.22 22.62 17.47 22.62 16.45C22.62 15.43 22.46 14.68 22.14 14.2C21.82 13.72 21.39 13.48 20.85 13.48C20.31 13.48 19.88 13.72 19.56 14.2C19.24 14.68 19.08 15.43 19.08 16.45C19.08 17.47 19.24 18.22 19.56 18.7C19.88 19.18 20.31 19.42 20.85 19.42Z" fill="white"/>
</svg>
