<svg width="92" height="24" fill="none" xmlns="http://www.w3.org/2000/svg"><g filter="url(#filter0_d)"><path d="M4 .002v15.335h1.989V8.314h7.872v7.023h1.988V.002h-1.988v6.594H5.989V.002H4zm15.109 0v15.335h10.384v-1.718h-8.395V8.314h7.767V6.596h-7.767V1.72h8.332V.002H19.109zm12.798 0v15.335h9.902v-1.718h-7.913V.002h-1.989zm15.478 9.064L53.101.002H50.84l-4.376 7.302-4.48-7.302h-2.366l5.779 9.064v6.27h1.988v-6.27zm7.4-9.064v15.335h1.989V8.314h6.866V6.596h-6.867V1.72h7.83V.002h-9.818zm12.021 0v15.335h9.903v-1.718h-7.914V.002h-1.989zm15.479 9.064L88 .002h-2.261l-4.376 7.302-4.48-7.302h-2.365l5.778 9.064v6.27h1.989v-6.27z" fill="#000"/></g><defs><filter id="filter0_d" x="0" y=".002" width="92" height="23.335" filterUnits="userSpaceOnUse" color-interpolation-filters="sRGB"><feFlood flood-opacity="0" result="BackgroundImageFix"/><feColorMatrix in="SourceAlpha" values="0 0 0 0 0 0 0 0 0 0 0 0 0 0 0 0 0 0 127 0" result="hardAlpha"/><feOffset dy="4"/><feGaussianBlur stdDeviation="2"/><feComposite in2="hardAlpha" operator="out"/><feColorMatrix values="0 0 0 0 0 0 0 0 0 0 0 0 0 0 0 0 0 0 0.25 0"/><feBlend in2="BackgroundImageFix" result="effect1_dropShadow"/><feBlend in="SourceGraphic" in2="effect1_dropShadow" result="shape"/></filter></defs></svg>