<svg width="27" height="23" fill="none" xmlns="http://www.w3.org/2000/svg"><path d="M6.03 12.37c-1.58 0-2.87-.52-3.87-1.56S.66 8.35.66 6.55c0-1.18.23-2.21.69-3.09.46-.88 1.09-1.55 1.89-2.01C4.06.97 4.99.73 6.03.73c1.6 0 2.9.53 3.9 1.59 1 1.04 1.5 2.45 1.5 4.23 0 1.8-.5 3.22-1.5 4.26-1 1.04-2.3 1.56-3.9 1.56zM18.45 1h4.32L8.43 22H4.11L18.45 1zM6.03 9.52c.54 0 .97-.24 1.29-.72.32-.48.48-1.23.48-2.25s-.16-1.77-.48-2.25c-.32-.48-.75-.72-1.29-.72-.52 0-.95.25-1.29.75-.32.48-.48 1.22-.48 2.22 0 1 .16 1.75.48 2.25.34.48.77.72 1.29.72zm14.82 12.75c-1.6 0-2.9-.52-3.9-1.56-.98-1.04-1.47-2.46-1.47-4.26 0-1.78.5-3.19 1.5-4.23 1-1.06 2.29-1.59 3.87-1.59 1.6 0 2.9.53 3.9 1.59 1 1.04 1.5 2.45 1.5 4.23 0 1.8-.5 3.22-1.5 4.26-1 1.04-2.3 1.56-3.9 1.56zm0-2.85c.54 0 .97-.24 1.29-.72.32-.48.48-1.23.48-2.25s-.16-1.77-.48-2.25c-.32-.48-.75-.72-1.29-.72s-.97.24-1.29.72c-.32.48-.48 1.23-.48 2.25s.16 1.77.48 2.25c.32.48.75.72 1.29.72z" fill="#fff"/></svg>