<svg width="33" height="33" viewBox="0 0 33 33" fill="none" xmlns="http://www.w3.org/2000/svg">
<path d="M25.1433 8.72586C25.1433 3.95164 21.2737 0.0820312 16.4988 0.0820312C11.7239 0.0820312 7.85498 3.95164 7.85498 8.72586C7.85498 15.566 16.4988 25.6878 16.4988 25.6878C16.4988 25.6878 25.1433 15.5308 25.1433 8.72586ZM12.2359 8.20973C12.2359 5.8547 14.1452 3.94612 16.4995 3.94612C18.8538 3.94612 20.7631 5.8547 20.7631 8.20973C20.7631 10.5647 18.8538 12.4733 16.4995 12.4733C14.1452 12.4733 12.2359 10.5647 12.2359 8.20973Z" fill="#37373F"/>
<path d="M16.4991 10.3059C17.6568 10.3059 18.5954 9.36741 18.5954 8.20967C18.5954 7.05193 17.6568 6.1134 16.4991 6.1134C15.3414 6.1134 14.4028 7.05193 14.4028 8.20967C14.4028 9.36741 15.3414 10.3059 16.4991 10.3059Z" fill="#C94042"/>
<path d="M21.3863 22.6808C20.6818 23.6992 20.0208 24.5859 19.4702 25.298C24.9323 25.6265 28.5121 26.8057 29.8439 27.6827C28.2837 28.7115 23.6482 30.1578 16.5003 30.1578C9.35316 30.1578 4.71695 28.7108 3.15682 27.6827C4.48855 26.8057 8.06559 25.6272 13.5222 25.2987C12.9702 24.5866 12.3085 23.7006 11.6033 22.6822C4.88186 23.3439 0 25.3325 0 27.682C0 30.5732 7.388 32.9179 16.5003 32.9179C25.6134 32.9179 33 30.5746 33 27.682C33.0014 25.3311 28.114 23.3418 21.3863 22.6808Z" fill="#37373F"/>
</svg>
